<svg width="200" height="150" viewBox="0 0 200 150" xmlns="http://www.w3.org/2000/svg">
  <!-- Axes -->
  <line x1="20" y1="130" x2="180" y2="130" stroke="#374151" stroke-width="1"/>
  <line x1="20" y1="130" x2="20" y2="20" stroke="#374151" stroke-width="1"/>
  
  <!-- Grid lines -->
  <line x1="20" y1="110" x2="180" y2="110" stroke="#e5e7eb" stroke-width="0.5"/>
  <line x1="20" y1="90" x2="180" y2="90" stroke="#e5e7eb" stroke-width="0.5"/>
  <line x1="20" y1="70" x2="180" y2="70" stroke="#e5e7eb" stroke-width="0.5"/>
  <line x1="20" y1="50" x2="180" y2="50" stroke="#e5e7eb" stroke-width="0.5"/>
  <line x1="20" y1="30" x2="180" y2="30" stroke="#e5e7eb" stroke-width="0.5"/>
  
  <line x1="40" y1="20" x2="40" y2="130" stroke="#e5e7eb" stroke-width="0.5"/>
  <line x1="60" y1="20" x2="60" y2="130" stroke="#e5e7eb" stroke-width="0.5"/>
  <line x1="80" y1="20" x2="80" y2="130" stroke="#e5e7eb" stroke-width="0.5"/>
  <line x1="100" y1="20" x2="100" y2="130" stroke="#e5e7eb" stroke-width="0.5"/>
  <line x1="120" y1="20" x2="120" y2="130" stroke="#e5e7eb" stroke-width="0.5"/>
  <line x1="140" y1="20" x2="140" y2="130" stroke="#e5e7eb" stroke-width="0.5"/>
  <line x1="160" y1="20" x2="160" y2="130" stroke="#e5e7eb" stroke-width="0.5"/>
  
  <!-- Line -->
  <line x1="40" y1="110" x2="160" y2="30" stroke="#2563eb" stroke-width="2"/>
  
  <!-- Points -->
  <circle cx="40" cy="110" r="3" fill="#2563eb"/>
  <circle cx="160" cy="30" r="3" fill="#2563eb"/>
  
  <!-- Labels -->
  <text x="40" y="145" text-anchor="middle" font-family="Arial" font-size="10" fill="#374151">(-2, 5)</text>
  <text x="160" y="145" text-anchor="middle" font-family="Arial" font-size="10" fill="#374151">(4, -1)</text>
  <text x="100" y="15" text-anchor="middle" font-family="Arial" font-size="12" fill="#374151">Find the slope</text>
</svg>
